<svg width="585" height="200" viewBox="0 0 585 200" fill="none" xmlns="http://www.w3.org/2000/svg">
<g opacity="0.8">
<path d="M13.5 180C13.7761 180 14 179.776 14 179.5C14 179.224 13.7761 179 13.5 179C13.2239 179 13 179.224 13 179.5C13 179.776 13.2239 180 13.5 180Z" fill="#727272"/>
<path d="M45.5 180C45.7761 180 46 179.776 46 179.5C46 179.224 45.7761 179 45.5 179C45.2239 179 45 179.224 45 179.5C45 179.776 45.2239 180 45.5 180Z" fill="#727272"/>
<path d="M77.5 180C77.7761 180 78 179.776 78 179.5C78 179.224 77.7761 179 77.5 179C77.2239 179 77 179.224 77 179.5C77 179.776 77.2239 180 77.5 180Z" fill="#727272"/>
<path d="M109.5 180C109.776 180 110 179.776 110 179.5C110 179.224 109.776 179 109.5 179C109.224 179 109 179.224 109 179.5C109 179.776 109.224 180 109.5 180Z" fill="#727272"/>
</g>
<g opacity="0.8">
<path d="M85.5 16C85.7761 16 86 15.7761 86 15.5C86 15.2239 85.7761 15 85.5 15C85.2239 15 85 15.2239 85 15.5C85 15.7761 85.2239 16 85.5 16Z" fill="#727272"/>
<path d="M117.5 16C117.776 16 118 15.7761 118 15.5C118 15.2239 117.776 15 117.5 15C117.224 15 117 15.2239 117 15.5C117 15.7761 117.224 16 117.5 16Z" fill="#727272"/>
<path d="M149.5 16C149.776 16 150 15.7761 150 15.5C150 15.2239 149.776 15 149.5 15C149.224 15 149 15.2239 149 15.5C149 15.7761 149.224 16 149.5 16Z" fill="#727272"/>
<path d="M181.5 16C181.776 16 182 15.7761 182 15.5C182 15.2239 181.776 15 181.5 15C181.224 15 181 15.2239 181 15.5C181 15.7761 181.224 16 181.5 16Z" fill="#727272"/>
<path d="M213.5 16C213.776 16 214 15.7761 214 15.5C214 15.2239 213.776 15 213.5 15C213.224 15 213 15.2239 213 15.5C213 15.7761 213.224 16 213.5 16Z" fill="#727272"/>
</g>
<g opacity="0.8">
<path d="M455.5 178C455.776 178 456 177.776 456 177.5C456 177.224 455.776 177 455.5 177C455.224 177 455 177.224 455 177.5C455 177.776 455.224 178 455.5 178Z" fill="#727272"/>
<path d="M487.5 178C487.776 178 488 177.776 488 177.5C488 177.224 487.776 177 487.5 177C487.224 177 487 177.224 487 177.5C487 177.776 487.224 178 487.5 178Z" fill="#727272"/>
<path d="M519.5 178C519.776 178 520 177.776 520 177.5C520 177.224 519.776 177 519.5 177C519.224 177 519 177.224 519 177.5C519 177.776 519.224 178 519.5 178Z" fill="#727272"/>
<path d="M551.5 178C551.776 178 552 177.776 552 177.5C552 177.224 551.776 177 551.5 177C551.224 177 551 177.224 551 177.5C551 177.776 551.224 178 551.5 178Z" fill="#727272"/>
</g>
<g opacity="0.8">
<path d="M530 47.5C530 47.2239 529.776 47 529.5 47C529.224 47 529 47.2239 529 47.5C529 47.7761 529.224 48 529.5 48C529.776 48 530 47.7761 530 47.5Z" fill="#727272"/>
<path d="M530 15.5C530 15.2239 529.776 15 529.5 15C529.224 15 529 15.2239 529 15.5C529 15.7761 529.224 16 529.5 16C529.776 16 530 15.7761 530 15.5Z" fill="#727272"/>
<path d="M562 47.5C562 47.2239 561.776 47 561.5 47C561.224 47 561 47.2239 561 47.5C561 47.7761 561.224 48 561.5 48C561.776 48 562 47.7761 562 47.5Z" fill="#727272"/>
<path d="M562 15.5C562 15.2239 561.776 15 561.5 15C561.224 15 561 15.2239 561 15.5C561 15.7761 561.224 16 561.5 16C561.776 16 562 15.7761 562 15.5Z" fill="#727272"/>
</g>
</svg>
