<svg width="226" height="74" viewBox="0 0 226 74" fill="none" xmlns="http://www.w3.org/2000/svg">
<path d="M105.899 42.3961H110.492C108.999 47.8504 104.809 52.2144 97.5161 52.2144C88.617 52.2144 83.2207 45.9569 83.2207 36.7707C83.2207 27.0104 88.733 21.327 97.2871 21.327C106.473 21.327 110.95 27.5845 110.95 37.977H87.8138C87.8138 43.2602 90.9715 48.1955 97.345 48.1955C103.2 48.1955 105.383 44.4056 105.899 42.3961ZM87.8138 33.958H106.357C106.357 29.249 102.796 25.346 97.2871 25.346C91.7777 25.346 87.8138 29.249 87.8138 33.958Z" fill="#0041CF"/>
<path d="M120.251 10.3604V51.4112H115.658V10.3604H120.251Z" fill="#0041CF"/>
<path d="M126.16 13.6893C126.16 11.9089 127.767 10.9346 129.031 10.9346C130.295 10.9346 131.902 11.9118 131.902 13.6893C131.902 15.4668 130.35 16.444 129.031 16.444C127.711 16.444 126.16 15.4668 126.16 13.6893ZM131.327 22.1303V51.4112H126.734V22.1303H131.327Z" fill="#0041CF"/>
<path d="M165.317 36.7707C165.317 46.4151 159.46 52.2144 152.228 52.2144C147.406 52.2144 144.648 50.147 142.926 47.6213H142.81V62.1226H138.217V22.1302H142.81V25.7461H142.926C144.648 23.5076 147.403 21.3241 152.228 21.3241C159.463 21.3241 165.317 27.1235 165.317 36.7678V36.7707ZM160.724 36.7707C160.724 31.0294 157.682 25.346 151.654 25.346C146.2 25.346 142.813 29.8811 142.813 36.7707C142.813 43.6604 146.2 48.1955 151.654 48.1955C157.682 48.1955 160.724 42.5121 160.724 36.7707Z" fill="#0041CF"/>
<path d="M182.655 25.346C175.707 25.346 173.069 31.2584 173.069 36.7707C173.069 42.283 175.71 48.1955 182.655 48.1955C188.567 48.1955 190.693 44.1185 190.922 40.6157H195.515C195.112 47.2763 189.89 52.2144 182.655 52.2144C174.101 52.2144 168.473 45.9569 168.473 36.7707C168.473 27.5845 174.098 21.327 182.655 21.327C189.89 21.327 194.828 26.1492 195.515 32.6938H190.922C190.693 29.478 188.509 25.346 182.655 25.346Z" fill="#0041CF"/>
<path d="M220.948 42.3961H225.541C224.048 47.8504 219.858 52.2144 212.565 52.2144C203.666 52.2144 198.27 45.9569 198.27 36.7707C198.27 27.0104 203.782 21.327 212.336 21.327C221.522 21.327 225.999 27.5845 225.999 37.977H202.863C202.863 43.2602 206.02 48.1955 212.394 48.1955C218.251 48.1955 220.432 44.4056 220.948 42.3961ZM202.863 33.958H221.406C221.406 29.249 217.848 25.346 212.336 25.346C206.824 25.346 202.863 29.249 202.863 33.958Z" fill="#0041CF"/>
<path d="M152.168 60.3277C152.168 61.3078 151.429 62.1284 149.877 62.1284C148.326 62.1284 147.224 61.3455 147.166 59.9507H148.19C148.242 60.7337 148.775 61.2498 149.877 61.2498C150.791 61.2498 151.144 60.8438 151.144 60.3712C151.144 59.6405 150.62 59.5013 149.405 59.1997C148.439 58.9591 147.398 58.5879 147.398 57.4164C147.398 56.3232 148.242 55.7114 149.584 55.7114C150.927 55.7114 151.919 56.4189 152.003 57.6832H150.979C150.883 56.9699 150.437 56.59 149.584 56.59C148.854 56.59 148.413 56.8655 148.413 57.3207C148.413 57.9935 148.99 58.1123 149.851 58.3269C151.168 58.6633 152.168 58.9475 152.168 60.3248V60.3277Z" fill="#FE6601"/>
<path d="M152.824 58.9156C152.824 57.0656 153.987 55.7114 155.846 55.7114C157.704 55.7114 158.867 57.0627 158.867 58.9156C158.867 60.7685 157.696 62.1284 155.846 62.1284C153.996 62.1284 152.824 60.7685 152.824 58.9156ZM157.844 58.9156C157.844 57.6745 157.258 56.59 155.846 56.59C154.434 56.59 153.839 57.6745 153.839 58.9156C153.839 60.1566 154.434 61.2498 155.846 61.2498C157.258 61.2498 157.844 60.1653 157.844 58.9156Z" fill="#FE6601"/>
<path d="M160.795 55.8419V61.128H163.869V61.9979H159.771V55.8419H160.795Z" fill="#FE6601"/>
<path d="M166.847 62.1284C165.133 62.1284 164.42 61.2411 164.42 59.8986V55.8419H165.444V59.8986C165.444 60.8294 165.907 61.2498 166.847 61.2498C167.786 61.2498 168.259 60.8265 168.259 59.8986V55.8419H169.274V59.8986C169.274 61.2411 168.561 62.1284 166.847 62.1284Z" fill="#FE6601"/>
<path d="M171.95 56.7118H169.979V55.8419H174.937V56.7118H172.974V61.9979H171.95V56.7118Z" fill="#FE6601"/>
<path d="M176.762 55.8419V61.9979H175.738V55.8419H176.762Z" fill="#FE6601"/>
<path d="M177.717 58.9156C177.717 57.0656 178.88 55.7114 180.738 55.7114C182.597 55.7114 183.76 57.0627 183.76 58.9156C183.76 60.7685 182.588 62.1284 180.738 62.1284C178.888 62.1284 177.717 60.7685 177.717 58.9156ZM182.736 58.9156C182.736 57.6745 182.15 56.59 180.738 56.59C179.326 56.59 178.732 57.6745 178.732 58.9156C178.732 60.1566 179.326 61.2498 180.738 61.2498C182.15 61.2498 182.736 60.1653 182.736 58.9156Z" fill="#FE6601"/>
<path d="M184.664 55.8419H185.809L188.582 60.4669H188.599V55.8419H189.623V61.9979H188.486L185.705 57.3903H185.688V61.9979H184.664V55.8419Z" fill="#FE6601"/>
<path d="M195.434 60.3277C195.434 61.3078 194.694 62.1284 193.143 62.1284C191.592 62.1284 190.49 61.3455 190.432 59.9507H191.455C191.507 60.7337 192.041 61.2498 193.143 61.2498C194.056 61.2498 194.41 60.8438 194.41 60.3712C194.41 59.6405 193.885 59.5013 192.67 59.1997C191.705 58.9591 190.664 58.5879 190.664 57.4164C190.664 56.3232 191.507 55.7114 192.85 55.7114C194.193 55.7114 195.184 56.4189 195.268 57.6832H194.245C194.149 56.9699 193.702 56.59 192.85 56.59C192.119 56.59 191.678 56.8655 191.678 57.3207C191.678 57.9935 192.256 58.1123 193.117 58.3269C194.433 58.6633 195.434 58.9475 195.434 60.3248V60.3277Z" fill="#FE6601"/>
<path d="M26.5933 11.5962L17.7344 14.053L18.5309 16.9253L27.3899 14.4685L26.5933 11.5962Z" fill="#FE6601"/>
<path d="M15.346 19.5424L8.90234 26.0995L10.7816 27.9463L17.2253 21.3891L15.346 19.5424Z" fill="#FE6601"/>
<path d="M9.75144 32.0665L7.45117 40.9674L9.32449 41.4515L11.6248 32.5506L9.75144 32.0665Z" fill="#FE6601"/>
<path d="M12.7024 45.0372L10.8379 45.5543L13.2954 54.4158L15.1599 53.8988L12.7024 45.0372Z" fill="#FE6601"/>
<path d="M20.1222 55.0616L18.2773 56.9389L24.8345 63.3826L26.6793 61.5053L20.1222 55.0616Z" fill="#FE6601"/>
<path d="M31.3603 60.1114L30.6133 62.9998L39.5138 65.3016L40.2607 62.4133L31.3603 60.1114Z" fill="#FE6601"/>
<path d="M52.4332 56.5798L43.5742 59.0366L44.3715 61.9115L53.2304 59.4547L52.4332 56.5798Z" fill="#FE6601"/>
<path d="M59.9339 45.3186L53.4902 51.8757L55.8648 54.2092L62.3085 47.6521L59.9339 45.3186Z" fill="#FE6601"/>
<path d="M60.796 31.84L58.4941 40.7405L62.0575 41.662L64.3593 32.7615L60.796 31.84Z" fill="#FE6601"/>
<path d="M58.3416 18.9102L55.1309 19.8006L57.5877 28.6596L60.7985 27.7691L58.3416 18.9102Z" fill="#FE6601"/>
<path d="M46.2513 10.0013L44.1621 12.1272L50.7192 18.5709L52.8084 16.4449L46.2513 10.0013Z" fill="#FE6601"/>
<path d="M31.4462 8.20442L30.6992 11.0928L39.6023 13.3953L40.3493 10.5069L31.4462 8.20442Z" fill="#FE6601"/>
<path d="M30.1883 -1.67339e-05L29.4922 3.22525L38.5367 5.17743L39.2328 1.95217L30.1883 -1.67339e-05Z" fill="#FE6601"/>
<path d="M25.6913 3.4231L16.5879 5.0791L17.1165 7.98506L26.2199 6.32905L25.6913 3.4231Z" fill="#FE6601"/>
<path d="M13.8012 9.9386L6.02539 14.9536L7.43879 17.1451L15.2146 12.1301L13.8012 9.9386Z" fill="#FE6601"/>
<path d="M5.64038 20.6593L0.376953 28.2691L1.67267 29.1653L6.9361 21.5555L5.64038 20.6593Z" fill="#FE6601"/>
<path d="M1.95218 33.424L0 42.4685L1.20188 42.7279L3.15406 33.6834L1.95218 33.424Z" fill="#FE6601"/>
<path d="M4.63205 46.3472L3.08203 46.6291L4.73803 55.7325L6.28805 55.4505L4.63205 46.3472Z" fill="#FE6601"/>
<path d="M11.1192 57.2275L8.92773 58.6409L13.9428 66.4167L16.1342 65.0033L11.1192 57.2275Z" fill="#FE6601"/>
<path d="M20.9291 64.9425L19.248 67.3711L26.8561 72.6372L28.5371 70.2086L20.9291 64.9425Z" fill="#FE6601"/>
<path d="M32.894 68.2821L32.1973 71.5073L41.2414 73.461L41.9381 70.2359L32.894 68.2821Z" fill="#FE6601"/>
<path d="M54.2769 65.3025L45.1738 66.9601L45.7644 70.2036L54.8675 68.546L54.2769 65.3025Z" fill="#FE6601"/>
<path d="M63.7094 55.8712L55.9336 60.8862L57.908 63.9475L65.6838 58.9325L63.7094 55.8712Z" fill="#FE6601"/>
<path d="M68.8969 43.6997L63.6309 51.3077L66.6261 53.381L71.8922 45.7729L68.8969 43.6997Z" fill="#FE6601"/>
<path d="M68.8819 30.439L66.9297 39.4835L70.8285 40.325L72.7807 31.2805L68.8819 30.439Z" fill="#FE6601"/>
<path d="M67.703 17.5339L64.1191 18.1865L65.7767 27.2896L69.3605 26.637L67.703 17.5339Z" fill="#FE6601"/>
<path d="M57.9187 6.7595L54.8574 8.73387L59.8724 16.5097L62.9337 14.5353L57.9187 6.7595Z" fill="#FE6601"/>
<path d="M44.6635 0.689569L42.7871 3.40038L50.3951 8.66646L52.2715 5.95565L44.6635 0.689569Z" fill="#FE6601"/>
<path d="M27.2738 20.2251L19.1387 24.3362L20.1686 26.3742L28.3037 22.2631L27.2738 20.2251Z" fill="#FE6601"/>
<path d="M18.2204 30.8518L15.375 39.5112L17.2132 40.1152L20.0586 31.4558L18.2204 30.8518Z" fill="#FE6601"/>
<path d="M21.048 43.7591L19.0098 44.7887L23.1195 52.9245L25.1577 51.895L21.048 43.7591Z" fill="#FE6601"/>
<path d="M50.5231 46.5914L42.3887 50.704L43.7335 53.364L51.868 49.2514L50.5231 46.5914Z" fill="#FE6601"/>
<path d="M52.9724 32.945L50.127 41.6044L53.2924 42.6446L56.1378 33.9851L52.9724 32.945Z" fill="#FE6601"/>
<path d="M48.0377 20.1952L45.375 21.5408L49.4861 29.6759L52.1488 28.3303L48.0377 20.1952Z" fill="#FE6601"/>
<path d="M31.9363 16.3639L31.2051 18.8923L39.9612 21.4246L40.6924 18.8961L31.9363 16.3639Z" fill="#FE6601"/>
<path d="M30.8921 51.8339L30.1602 54.365L38.9163 56.8973L39.6483 54.3662L30.8921 51.8339Z" fill="#FE6601"/>
</svg>
