<svg width="12" height="12" viewBox="0 0 12 12" fill="none" xmlns="http://www.w3.org/2000/svg">
<g clip-path="url(#clip0_460_95)">
<path d="M10 0C10.5304 0 11.0391 0.210714 11.4142 0.585786C11.7893 0.960859 12 1.46957 12 2V10C12 10.5304 11.7893 11.0391 11.4142 11.4142C11.0391 11.7893 10.5304 12 10 12H2C1.46957 12 0.960859 11.7893 0.585786 11.4142C0.210714 11.0391 0 10.5304 0 10V2C0 1.46957 0.210714 0.960859 0.585786 0.585786C0.960859 0.210714 1.46957 0 2 0L10 0ZM4.475 4.7H3.08V8.75H4.48V4.7H4.475ZM7.895 4.605C7.235 4.605 6.895 4.92 6.705 5.185L6.64 5.275V4.7H5.245L5.25 4.945V8.75H6.64V6.49C6.63171 6.38527 6.64522 6.27995 6.67968 6.1807C6.71414 6.08146 6.7688 5.99043 6.84022 5.91338C6.91164 5.83632 6.99825 5.77491 7.0946 5.73302C7.19095 5.69113 7.29494 5.66967 7.4 5.67C7.88 5.67 8.085 6 8.105 6.5V8.75H9.5V6.43C9.5 5.185 8.815 4.605 7.9 4.605H7.895ZM3.79 2.75C3.31 2.75 3 3.05 3 3.45C3 3.815 3.27 4.11 3.69 4.15H3.78C4.265 4.15 4.565 3.84 4.565 3.45C4.56 3.05 4.265 2.75 3.79 2.75Z" fill="#FE6601"/>
</g>
<defs>
<clipPath id="clip0_460_95">
<rect width="12" height="12" fill="white"/>
</clipPath>
</defs>
</svg>
