<svg width="10" height="10" viewBox="0 0 10 10" fill="none" xmlns="http://www.w3.org/2000/svg">
<g clip-path="url(#clip0_460_97)">
<path d="M9.16757 7.05002V8.30002C9.16805 8.41606 9.14428 8.53092 9.09779 8.63725C9.0513 8.74357 8.98312 8.83902 8.89761 8.91746C8.8121 8.99591 8.71115 9.05564 8.60122 9.09282C8.49129 9.12999 8.37481 9.1438 8.25924 9.13335C6.97709 8.99404 5.74549 8.55591 4.66341 7.85419C3.65667 7.21446 2.80313 6.36093 2.16341 5.35419C1.45923 4.26719 1.02101 3.0296 0.884241 1.74169C0.873829 1.62646 0.887523 1.51034 0.92445 1.4007C0.961377 1.29106 1.02073 1.19031 1.09873 1.10486C1.17673 1.01942 1.27166 0.951149 1.37749 0.904404C1.48332 0.857659 1.59772 0.833462 1.71341 0.833353H2.96341C3.16562 0.831363 3.36165 0.902969 3.51498 1.03483C3.6683 1.16668 3.76844 1.34979 3.79674 1.55002C3.8495 1.95005 3.94735 2.34282 4.08841 2.72085C4.14447 2.86999 4.1566 3.03207 4.12337 3.18789C4.09014 3.34371 4.01293 3.48673 3.90091 3.60002L3.37174 4.12919C3.96489 5.17233 4.8286 6.03604 5.87174 6.62919L6.40091 6.10002C6.51419 5.98799 6.65722 5.91079 6.81304 5.87756C6.96886 5.84433 7.13094 5.85646 7.28007 5.91252C7.6581 6.05358 8.05088 6.15143 8.45091 6.20419C8.65331 6.23274 8.83816 6.33469 8.9703 6.49064C9.10243 6.6466 9.17264 6.84568 9.16757 7.05002Z" stroke="#FE6601"/>
</g>
<defs>
<clipPath id="clip0_460_97">
<rect width="10" height="10" fill="white"/>
</clipPath>
</defs>
</svg>
